<?xml version="1.0" encoding="UTF-8" standalone="no"?><svg xmlns="http://www.w3.org/2000/svg" xmlns:xlink="http://www.w3.org/1999/xlink" fill="#78349e" height="549.9" preserveAspectRatio="xMidYMid meet" version="1" viewBox="-24.5 -24.5 549.1 549.9" width="549.1" zoomAndPan="magnify"><g id="change1_1"><path d="M426.9,73.4c97.7,97.8,97.7,256.4,0,354.2s-256,97.8-353.7,0s-97.7-256.4,0-354.2S329.2-24.5,426.9,73.4z" fill="#5ce1e6"/></g><g id="change2_1"><path d="M243.2,205.4c0,40-32.4,72.4-72.4,72.4s-72.4-32.4-72.4-72.4s32.4-72.4,72.4-72.4S243.2,165.4,243.2,205.4z M329.2,133c-40,0-72.4,32.4-72.4,72.4s32.4,72.4,72.4,72.4s72.4-32.4,72.4-72.4S369.2,133,329.2,133z" fill="#ebd6cb"/></g><g id="change3_1"><path d="M215,205.4c0,24.4-19.8,44.1-44.1,44.1s-44.1-19.8-44.1-44.1s19.8-44.1,44.1-44.1S215,181,215,205.4z M329.2,161.3 c-24.4,0-44.1,19.8-44.1,44.1s19.8,44.1,44.1,44.1s44.1-19.8,44.1-44.1S353.6,161.3,329.2,161.3z" fill="inherit"/></g><g id="change4_1"><path d="M462.7,293.2c0,24.8-20.1,44.9-44.9,44.9s-44.9-20.1-44.9-44.9c0-24.8,20.1-44.9,44.9-44.9 S462.7,268.4,462.7,293.2z M82.4,248.2c-24.8,0-44.9,20.1-44.9,44.9c0,24.8,20.1,44.9,44.9,44.9s44.9-20.1,44.9-44.9 C127.3,268.4,107.2,248.2,82.4,248.2z" fill="#5ce1e6"/></g><g id="change3_2"><path d="M386.6,313.8c-120.4,101.1-224.5,36.6-267.6-0.1c-8.2-7-3.2-20.4,7.6-20.4h252.6C390,293.2,394.9,306.8,386.6,313.8z" fill="inherit"/></g></svg>