<?xml version="1.0" encoding="UTF-8" standalone="no"?><svg xmlns="http://www.w3.org/2000/svg" xmlns:xlink="http://www.w3.org/1999/xlink" fill="#000000" height="266.3" preserveAspectRatio="xMidYMid meet" version="1" viewBox="-15.8 0.0 532.1 266.3" width="532.1" zoomAndPan="magnify"><g id="change1_1"><path d="M77.1,266.3c-55.5,0-92.9-57.1-70.4-107.8C48,65.1,141.5,0,250.2,0s202.2,65.1,243.6,158.5 c22.5,50.7-14.9,107.8-70.4,107.8H77.1z" fill="#c1ff72"/></g><g id="change2_1"><path d="M246.2,106.4c0,23.7-19.2,42.9-42.9,42.9s-42.9-19.2-42.9-42.9s19.2-42.9,42.9-42.9S246.2,82.7,246.2,106.4z M297.2,63.5c-23.7,0-42.9,19.2-42.9,42.9s19.2,42.9,42.9,42.9s42.9-19.2,42.9-42.9S320.9,63.5,297.2,63.5z" fill="#c1ff72"/></g><g id="change3_1"><path d="M249.5,204.5c-20.9,0-37.8-17-37.8-37.8c0-20.9,17-37.8,37.8-37.8c20.9,0,37.8,17,37.8,37.8 C287.3,187.5,270.4,204.5,249.5,204.5z M249.5,149.5c-9.5,0-17.2,7.7-17.2,17.2c0,9.5,7.7,17.2,17.2,17.2s17.2-7.7,17.2-17.2 C266.7,157.2,259,149.5,249.5,149.5z" fill="inherit"/></g><g id="change4_1"><path d="M376.4,158.5c0,14.7-11.9,26.7-26.7,26.7c-14.7,0-26.7-11.9-26.7-26.7s11.9-26.7,26.7-26.7 C364.4,131.8,376.4,143.8,376.4,158.5z M150.8,131.8c-14.7,0-26.7,11.9-26.7,26.7s11.9,26.7,26.7,26.7s26.7-11.9,26.7-26.7 S165.5,131.8,150.8,131.8z" fill="#ff7f1d"/></g><g id="change3_2"><path d="M229.4,106.4c0,14.5-11.7,26.2-26.2,26.2c-14.5,0-26.2-11.7-26.2-26.2s11.7-26.2,26.2-26.2 C217.7,80.2,229.4,91.9,229.4,106.4z M297.2,80.2c-14.5,0-26.2,11.7-26.2,26.2s11.7,26.2,26.2,26.2s26.2-11.7,26.2-26.2 S311.7,80.2,297.2,80.2z" fill="inherit"/></g></svg>