<?xml version="1.0" encoding="UTF-8" standalone="no"?><svg xmlns="http://www.w3.org/2000/svg" xmlns:xlink="http://www.w3.org/1999/xlink" fill="#78349e" height="448.9" preserveAspectRatio="xMidYMid meet" version="1" viewBox="0.0 0.0 425.8 448.9" width="425.8" zoomAndPan="magnify"><g id="change1_1"><path d="M366.2,289.5c16.3,16.9,26.3,39.9,26.3,65.2c0,52-42.2,94.2-94.2,94.2c-39.1,0-72.6-23.8-86.8-57.7 c-14.8,32.6-47.6,55.4-85.8,55.4c-52,0-94.2-42.2-94.2-94.2c0-24.7,9.6-47.2,25.1-64C23.3,273.8,0,240.6,0,202 c0-52,42.2-94.2,94.2-94.2c8,0,15.7,1,23,2.9c-0.9-5.4-1.5-10.9-1.5-16.5c0-52,42.2-94.2,94.2-94.2c52,0,94.2,42.2,94.2,94.2 c0,6.3-0.6,12.4-1.8,18.3c9.2-3,19-4.7,29.3-4.7c52,0,94.2,42.2,94.2,94.2C425.7,241.7,401,275.7,366.2,289.5z" fill="#ffb72c"/></g><g id="change2_1"><path d="M208.7,196.9c0,24.4-19.8,44.1-44.1,44.1s-44.1-19.8-44.1-44.1s19.8-44.1,44.1-44.1S208.7,172.6,208.7,196.9 z M261.1,152.8c-24.4,0-44.1,19.8-44.1,44.1s19.8,44.1,44.1,44.1s44.1-19.8,44.1-44.1S285.4,152.8,261.1,152.8z" fill="#5ce1e6"/></g><g id="change3_1"><path d="M342.4,250.4c0,15.1-12.3,27.4-27.4,27.4s-27.4-12.3-27.4-27.4c0-15.1,12.3-27.4,27.4-27.4 S342.4,235.3,342.4,250.4z M110.6,223.1c-15.1,0-27.4,12.3-27.4,27.4c0,15.1,12.3,27.4,27.4,27.4s27.4-12.3,27.4-27.4 C138,235.3,125.8,223.1,110.6,223.1z" fill="#e08d3d"/></g><g id="change4_1"><path d="M215.1,296.1c-40.8,0-73-22.1-89.1-35.8c-4.5-3.8-5-10.5-1.2-15c3.8-4.5,10.5-5,15-1.2c27.7,23.6,83.8,55.1,149.4,0 c4.5-3.8,11.2-3.2,15,1.3c3.8,4.5,3.2,11.2-1.3,15C271.4,287,241.4,296.1,215.1,296.1z" fill="inherit"/></g><g id="change4_2"><path d="M191.4,196.9c0,14.8-12,26.9-26.9,26.9c-14.8,0-26.9-12-26.9-26.9s12-26.9,26.9-26.9C179.4,170,191.4,182.1,191.4,196.9z M261.1,170c-14.8,0-26.9,12-26.9,26.9s12,26.9,26.9,26.9c14.8,0,26.9-12,26.9-26.9S275.9,170,261.1,170z" fill="inherit"/></g></svg>